<?xml version="1.0" encoding="utf-8"?>
<!-- Generator: Adobe Illustrator 24.0.2, SVG Export Plug-In . SVG Version: 6.00 Build 0)  -->
<svg version="1.1" id="Capa_1" xmlns="http://www.w3.org/2000/svg" xmlns:xlink="http://www.w3.org/1999/xlink" x="0px" y="0px"
	 viewBox="0 0 40 40" style="enable-background:new 0 0 40 40;" xml:space="preserve">
<style type="text/css">
	.st0{fill:#16477E;}
</style>
<polygon class="st0" points="16.3,20.7 24,20.9 24,0.6 16.3,0.5 "/>
<path class="st0" d="M31.9,0.4H40L39.7,22c-0.1,1.3-1.2,9.6-8.6,14.5c-4.6,3-8.8,3.2-10.7,3.1c-4.9,0-7-0.3-12.1-3.7
	c-3.6-2.4-5.6-6-6.7-8.6c-0.9-2.1-1.3-4.3-1.4-6.6V0.4l7.9,0l0,19.5c0.1,1.4,0.4,3.4,0.8,4.4c0.5,1.6,1.3,3.1,3.4,4.9
	c3.1,2.7,6.6,2.9,7.6,2.9c1,0,5.7-0.3,9.1-4.1c1-1.1,1.8-2.7,2.3-4.5c0.5-1.7,0.7-3.4,0.7-5.1C32,12,31.8,7.3,31.9,0.4z"/>
</svg>
