<?xml version="1.0" encoding="UTF-8" standalone="no"?>
<svg
   xmlns:dc="http://purl.org/dc/elements/1.1/"
   xmlns:cc="http://creativecommons.org/ns#"
   xmlns:rdf="http://www.w3.org/1999/02/22-rdf-syntax-ns#"
   xmlns:svg="http://www.w3.org/2000/svg"
   xmlns="http://www.w3.org/2000/svg"
   xmlns:sodipodi="http://sodipodi.sourceforge.net/DTD/sodipodi-0.dtd"
   xmlns:inkscape="http://www.inkscape.org/namespaces/inkscape"
   version="1.1"
   id="svg4247"
   x="0px"
   y="0px"
   viewBox="0 0 120 120"
   style="enable-background:new 0 0 120 120;"
   xml:space="preserve"
   sodipodi:docname="WILC.svg"
   inkscape:version="1.0.1 (3bc2e813f5, 2020-09-07)"><metadata
   id="metadata23"><rdf:RDF><cc:Work
       rdf:about=""><dc:format>image/svg+xml</dc:format><dc:type
         rdf:resource="http://purl.org/dc/dcmitype/StillImage" /><dc:title></dc:title></cc:Work></rdf:RDF></metadata><defs
   id="defs21" />
<style
   type="text/css"
   id="style2">
	.st0{fill:#FFFFFF;}
	.st1{enable-background:new    ;}
	.st2{fill:#16477E;}
</style>
<sodipodi:namedview
   bordercolor="#666666"
   borderopacity="1"
   gridtolerance="10"
   guidetolerance="10"
   id="namedview4255"
   inkscape:current-layer="svg4247"
   inkscape:cx="68.478831"
   inkscape:cy="61.741873"
   inkscape:pageopacity="0"
   inkscape:pageshadow="2"
   inkscape:window-height="705"
   inkscape:window-maximized="1"
   inkscape:window-width="1366"
   inkscape:window-x="-8"
   inkscape:window-y="-8"
   inkscape:zoom="6.4921875"
   objecttolerance="10"
   pagecolor="#ffffff"
   showgrid="false"
   inkscape:document-rotation="0">
	</sodipodi:namedview>



<g
   id="g18">
	<g
   class="st1"
   id="g16">
		<path
   class="st2"
   d="M24,76.4c-4.4,0-8-1.8-11-5.4c-0.6-0.7-1-1.3-1.2-1.9c-0.4-0.6-0.7-1.5-1-2.5c-0.4-1.3-0.6-3-0.6-5.2V49.1    h5.5v13c0,4.4,2,7.3,5.9,8.7c0.9,0.3,1.7,0.4,2.4,0.4c0.7,0,1.5-0.1,2.4-0.4c3.9-1.5,5.9-4.4,5.9-8.7v-13h5.5v12.4    c0,2.2-0.2,3.9-0.6,5.2c-0.3,1.1-0.7,1.9-1,2.5c-0.2,0.5-0.6,1.1-1.2,1.9C32,74.6,28.3,76.4,24,76.4z M21.2,49.1h5.5v14.1h-5.5    V49.1z"
   id="path8" />
		<path
   class="st2"
   d="M40.6,49.1h5.5v27.4h-5.5V49.1z"
   id="path10" />
		<path
   class="st2"
   d="M49,49.1h5.5V62c0,3.6,1.4,6.3,4.2,7.9c1.2,0.8,2.8,1.2,4.8,1.2h13v5.3H63.7c-3.5,0-6.2-0.7-8.3-2.2    c-0.6-0.3-1.5-1-2.6-2.1c-1.5-1.7-2.5-3.4-3.1-5.1c-0.5-1.3-0.7-3.2-0.7-5.6V49.1z"
   id="path12" />
		<path
   class="st2"
   d="M107,49v5.3H94.1c-2.5,0-4.4,0.6-5.8,1.7c-0.7,0.5-1.4,1.2-2,2.1c-1,1.6-1.5,3.1-1.5,4.7    c0,1.6,0.6,3.2,1.7,4.9c0.9,1.3,2.4,2.3,4.3,3c0.7,0.2,1.8,0.4,3.2,0.4H107v5.2l-0.6,0.1H94.7c-3.2,0-5.5-0.4-7.1-1.2    c-3.3-1.5-5.7-3.8-7.1-7.1c-0.7-1.7-1.1-3.5-1.1-5.4c0-3.2,1-6.1,3.1-8.7c1.2-1.3,2.3-2.3,3.3-2.9c1.8-1.1,3.5-1.7,5-1.9    c0.5-0.2,2.6-0.2,6.3-0.2H107z"
   id="path14" />
	</g>
</g>
</svg>
